/* XPM */
static char *s45jITEpyg3_png[] = {
/* columns rows colors chars-per-pixel */
"65 53 230 2 ",
"   c None",
".  c #7C5A2E",
"X  c #955A03",
"o  c #935D18",
"O  c #8E5F1E",
"+  c #99620D",
"@  c #B77C18",
"#  c #AA6F0F",
"$  c #885C24",
"%  c #8E6224",
"&  c #85622D",
"*  c #8E662B",
"=  c #926624",
"-  c #9D6D25",
";  c #936A2B",
":  c #9C6E2B",
">  c #966629",
",  c #9B712B",
"<  c #9B7128",
"1  c #846231",
"2  c #8C6B36",
"3  c #946D34",
"4  c #9C7334",
"5  c #9C753A",
"6  c #9D7B3D",
"7  c #96763A",
"8  c #A3752B",
"9  c #A57C2E",
"0  c #AD7B2D",
"q  c #AC7628",
"w  c #B37D2C",
"e  c #A27633",
"r  c #A47A32",
"t  c #AC7C33",
"y  c #A37D3D",
"u  c #A77A3A",
"i  c #B17E37",
"p  c #A46925",
"a  c #9D7C42",
"s  c #A77E43",
"d  c #B8842C",
"f  c #AD8233",
"g  c #A7813F",
"h  c #AE823B",
"j  c #B28234",
"k  c #BA8432",
"l  c #BC8A35",
"z  c #B5853D",
"x  c #BB8B3A",
"c  c #B7883B",
"v  c #BC923B",
"b  c #B89836",
"n  c #C68924",
"m  c #D8982A",
"M  c #C38D36",
"N  c #C38D3B",
"B  c #C58835",
"V  c #C69236",
"C  c #CB9434",
"Z  c #C4933A",
"A  c #CB953A",
"S  c #CD9A3C",
"D  c #C7993B",
"F  c #D4953C",
"G  c #D39C3D",
"H  c #DC9B3D",
"J  c #D39B36",
"K  c #E19F3E",
"L  c #C7A33B",
"P  c #D6A13D",
"I  c #DDA33E",
"U  c #D9A434",
"Y  c #E5A43D",
"T  c #E9A83A",
"R  c #F9B63D",
"E  c #E4A22B",
"W  c #EBC13F",
"Q  c #A58242",
"!  c #AB8443",
"~  c #A68849",
"^  c #B48B45",
"/  c #BB8C43",
"(  c #B68C48",
")  c #B98F4A",
"_  c #B38545",
"`  c #BD924A",
"'  c #B99347",
"]  c #B89855",
"[  c #BFA152",
"{  c #BAA464",
"}  c #C39344",
"|  c #CC9B43",
" . c #C3944B",
".. c #CA974B",
"X. c #CB9A4D",
"o. c #C89846",
"O. c #D59D44",
"+. c #DD9E40",
"@. c #C59A50",
"#. c #CD9D51",
"$. c #D19E52",
"%. c #CCA443",
"&. c #CDAA43",
"*. c #CAA64C",
"=. c #D3A242",
"-. c #DCA442",
";. c #DCAC43",
":. c #DCAE4C",
">. c #D7A84A",
",. c #D7B647",
"<. c #CAA655",
"1. c #D4A353",
"2. c #DAA555",
"3. c #D5AA55",
"4. c #DDAA56",
"5. c #DBAB59",
"6. c #D5B554",
"7. c #E4A441",
"8. c #EAA641",
"9. c #E4AA43",
"0. c #EBAB44",
"q. c #E5AD4B",
"w. c #E6A74A",
"e. c #F1AE46",
"r. c #EEB146",
"t. c #ECB34A",
"y. c #E4BB4B",
"u. c #E7B946",
"i. c #F4B246",
"p. c #FDBE45",
"a. c #F5B449",
"s. c #FBB749",
"d. c #FCBC4B",
"f. c #F4BB49",
"g. c #E2AE59",
"h. c #E1AE57",
"j. c #E4B25A",
"k. c #EBB55B",
"l. c #E5BC5C",
"z. c #EEBA5D",
"x. c #E5B655",
"c. c #F5BB53",
"v. c #F1BB5E",
"b. c #D6B967",
"n. c #CCBE75",
"m. c #CAB468",
"M. c #EDB960",
"N. c #F3BD60",
"B. c #DCC55B",
"V. c #DFC64D",
"C. c #EFCB44",
"Z. c #EDC84D",
"A. c #FEC34E",
"S. c #FAC947",
"D. c #EDD646",
"F. c #F6DD45",
"G. c #FDD54D",
"H. c #F7D947",
"J. c #ECC05B",
"K. c #E8C751",
"L. c #FEC551",
"P. c #F5CD52",
"I. c #FECC52",
"U. c #F7C35C",
"Y. c #ECD658",
"T. c #FED354",
"R. c #FFDB55",
"E. c #FEDC59",
"W. c #FAD357",
"Q. c #FDE254",
"!. c #F5E45D",
"~. c #FEE35B",
"^. c #FFEA5D",
"/. c #FAEC59",
"(. c #FFF25F",
"). c #D7D269",
"_. c #D8C878",
"`. c #DCD37E",
"'. c #D2CF6D",
"]. c #EAC867",
"[. c #F5C262",
"{. c #FAC663",
"}. c #F5CC65",
"|. c #FACB64",
" X c #F6CC69",
".X c #E8D86C",
"XX c #FDD46A",
"oX c #FDDA6D",
"OX c #FBD566",
"+X c #E7D878",
"@X c #FAD870",
"#X c #F4CA70",
"$X c #EDE36D",
"%X c #FEEC61",
"&X c #FBE869",
"*X c #FEF464",
"=X c #FEFC65",
"-X c #FEF66B",
";X c #FFFE6B",
":X c #EBE57B",
">X c #ECEB72",
",X c #FEE372",
"<X c #F5E877",
"1X c #FBF673",
"2X c #FFFF70",
"3X c #FEFD74",
"4X c #FEFC7A",
"5X c #F5F378",
"6X c #D6CD85",
"7X c #DEDA8A",
"8X c #E4DD88",
"9X c #F3D982",
"0X c #ECDE94",
"qX c #E1C780",
"wX c #EBE48C",
"eX c #EBE888",
"rX c #F6EC89",
"tX c #F7F485",
"yX c #FEFE84",
"uX c #FAF68C",
"iX c #FFFF8C",
"pX c #F4F388",
"aX c #EDE797",
"sX c #F7EB99",
"dX c #FFFE93",
"fX c #FDFC9A",
"gX c #FDF498",
"hX c #FDFDA4",
"jX c #FBFAAB",
"kX c #FCFDB4",
/* pixels */
"                                                                                                                                  ",
"                                                                                                                                  ",
"                                                                                                                                  ",
"                                                                                                                                  ",
"                                                          '.).).'.                                                                ",
"                                                .X$X&X;X;X2X2X2X3X3X3X1X:X`.                                                      ",
"                                          +X$X-X*X^.^.^.^.(.=X=X=X=X=X;X;X4X4X:X6X                                                ",
"                                        <X;X^.~.~.E.E.~.^.*X*X=X=X=X=X=X=X=X=X;XyXeX                                              ",
"                                    <X2X^.E.E.~.~.E.P.y.&.%.L L &.,.K.!.*X*X*X=X=X2XiX8X                                          ",
"                                  <X*X~.E.E.E.P.;.v j c } X.1.3.1.X./ c v ,.!.*X=X=X=XiXrX                                        ",
"                                4X~.E.E.E.P.=.j / 4.v.{.[.c.k.j.v.XXXX}.l.o.i &.!.=X*X=XyXdX                                      ",
"                              4XE.E.E.E.y.j / h.N.{.{.{.X.u.S.Z.,.x.oXoXoXoX[.o.j K.*X*X1XyXdX                                    ",
"                            1XR.R.R.T.=.j 1.v.N.N.N.[.[./ K.~.^.V.1.XXXXXXXXoXoXl.j &.%X*X1XyXiX                                  ",
"                          <XE.T.T.I.S z g.N.v.N.N.N.N.j.i Z.E.E.y...[.|.oXoXoXoXoX}./ D ~.*X1XyXeX                                ",
"                        +X%XI.I.I.G z g.v.v.v.v.v.j.w.8.I P.R.R.P.u.f.f.U.XXoXoXoX,XXX} %.%X-X4XiX8X                              ",
"                        &XI.I.I.9.c 4.k.k.z.v.k.q.i.p.A.I.I.T.T.R.~.~.Q.G.S.}.oXoX,X,XXXx ,.*X1XyXdX                              ",
"                      .XR.A.L.a.N 1.g.j.k.k.j.q.S.A.A.A.A.A.I.I.T.R.E.~.~.Q.H.}.oX,X,X,X}.k Y.-X4XiXeX                            ",
"                      OXA.d.d.G ..4.g.j.j.j.:.p.A.d.d.d.d.A.A.I.I.T.R.E.~.~.^.F.|.,X,X,X,Xx.D %X1XyXdX                            ",
"                    ].T.d.d.e.O.1.h.g.g.j.2.T A.d.d.d.d.d.A.I.I.I.T.T.R.~.~.~./.W.oX,X,X,XoX| Y.;XyXiX8X                          ",
"                    }.d.d.s.a.1.1.4.4.g.g...T d.s.d.s.s.d.i.P S ;.P.R.R.R.~.^.(.D.OX,X,X,X,XJ.;.=X4XiXpX                          ",
"                    W.d.s.a.c.#.1.2.2.2.2.z 8.i.i.i.a.s.i.: ! ( 5 C T.R.R.P.,.&.*.XXoXoX,X,XoX:./.2XyXdX                          ",
"                  b.I.s.a.L.z.X.2.2.1.2.$.e 8.e.0.e.e.i.i.J } #.1._ P u.P v X.k.|.XXoXoXoX,X,Xx.Y.;XyXfX7X                        ",
"                  l.A.a.e.c.3.#.1.1.1.1.#.4 Y 8.8.0.e.i.a.p.Y l A ,.b v 1.z.|.|.|.XXXXoXoXoX,Xl.&.=X3XdXwX                        ",
"                  x.s.0.0.g.@.X.$.$.$.$.X.3 H 8.7.8.8.0.0.e.s.d.d.S.H.F.D.y.z.{.|.XXXXXXoXoX,X].h *X;XyXeX                        ",
"                  q.e.0.0.M.@...X.X.#.X...y B 7.K Y 7.7.7.8.0.i.s.d.L.I.G.H.C.J.{.|.XXXXoXoXoX}.` %X;X2XpX                        ",
"                  w.0.7.t.<X . .X.X.X... ._ > H H H K K 7.7.8.e.i.s.d.A.L.I.R.F.J.{.|.XXXXXXoX}.1.!.;X;XtX                        ",
"                  -.9.H y.5X`  . . . . . . .y p H H H H H 7.7.8.0.i.s.d.d.A.I.R.D.N.|.|.XXXXXX}.j.^.;X;XtX                        ",
"                  O.7.F :.tX`  . . . . . . .) 5 > B H H +.I 7.7.8.0.i.a.s.d.A.I.H.K.[.|.|.|.XX}.[.^.=X;X5X                        ",
"                  | 7.F -.uX[ /  . . . . . .` ) s 1 * w F H 7.8.0.0.r.a.a.s.A.I.G.C.M.{.|.|.|.}.<X%X*X;X>X                        ",
"                  } -.F C uXm.z ` ` ` ` ` ) ) ( / } l 8 ; q 0 k F 8.0.r.i.a.d.A.I.C.k.[.[.|.|.#XuX~.*X;X>X                        ",
"                  / H A n rX`.t ` ) ) ) ` N B C U T Y C g ! y 5 * d 0.0.r.i.a.s.A.C.g.N.[.[.U.9XuXQ.%X;X.X                        ",
"                  _ G A n ].aXu ) ( ) ^ r C C A A A S G J z ( ` Q b T 0.0.0.r.a.A.W 5.z.v.[.c.sXrXQ.%X;X).                        ",
"                    N N M | fX] h ^ ^ ^ 1 j S D D A S G G l e e M u.7.9.9.0.r.a.p.I 5.k.z.z.].jXoXQ.^.=X                          ",
"                    c N M @ wX8X- ^ ^ ^ 6 ; S Z D D A A G P P P I -.-.9.9.0.r.f.I o.j.j.M.q.0XgXS.E.^..X                          ",
"                    ! N l w <.hX] u ! ! ! & d S Z Z V A A S G G P -.-.9.9.9.t.0.k *.4.j.j.j.kX@XS.E.*XB.                          ",
"                      j j c # 8XaX- ! ! ! 6 % k Z Z M V Z D S G G =.-.-.9.0.9.k  .1.2.5.O.aXsXR I.R.W.                            ",
"                      ! l k j l hXn.o ! g g 7 % w M Z Z V D S G G P -.;.9.J 0 ( *.1.3.O.qXkXc.d.L.E.B.                            ",
"                        u 0 f q <.hX{ = Q y y 7 & = 0 l M Z D S S G J V 0 4 ) @.X.1.| b.kX#XR d.L.K.                              ",
"                          j 9 t + b.hX{ O Q Q y 6 2 & $ < C Z Z P d * 4 Q `  . .@.M b.kX9XT c.s.T.                                ",
"                          ! 0 8 r X b.hXn.$ 4 Q y 6 6 2 9 U v Z U L a ( ' ` ` ` k _.kX+XE t.a.L.:.                                ",
"                            y 8 , r X <.fXwX~ $ 7 y y 7 r C v Z J C Q ( ) ( t ` 0XjX].m w.0.s.:.                                  ",
"                              u 8 : 4 o f :XdX_.~ * 3 7 & - 8 8 q t y r r ] 6XjXsX>.m -.-.t.:.                                    ",
"                                y 8 = , = X [ :XtX+X<.~ 7 1 . . 1 a ] _.wXhXsXb.n J =.G r.*.                                      ",
"                                  s 8 % * : O o ' B.}.}. X X]..X5XtXuXrX+X3.n n | S S q.*.                                        ",
"                                      e 8 % ; , = o - f Z &.,.6.6.*.v d @ d Z Z V -.%.                                            ",
"                                        ! e 8 = * , , : : < < 8 q q 0 f j j l G =.*.                                              ",
"                                            _ h t 9 8 < , , 9 f r 9 f l D =.| *.                                                  ",
"                                                  ^ z c c x Z D D D | | X.                                                        ",
"                                                                                                                                  ",
"                                                                                                                                  ",
"                                                                                                                                  ",
"                                                                                                                                  ",
"                                                                                                                                  "
};
