/* XPM */
static char *s29F8aYHBqZ_png[] = {
/* columns rows colors chars-per-pixel */
"64 64 2 1 ",
"  c None",
". c black",
/* pixels */
"      .....................................................     ",
"   ..........................................................   ",
"  ............................................................  ",
" .............................................................. ",
" .............................................................. ",
"................................................................",
"................................................................",
".......                                                  .......",
".......                                                  .......",
".......                                                  .......",
".......                                                  .......",
".......                                                  .......",
".......                                                  .......",
".......                                                  .......",
".......                                                  .......",
".......                      ..                          .......",
".......                     ....                         .......",
".......                    ......                        .......",
".......                   ........                       .......",
".......                   .........                      .......",
".......                   ..........                     .......",
"                           ..........                    .......",
"                            ..........                   .......",
"                             ..........                  .......",
"                              ..........                 .......",
"                               ..........                .......",
"                                ..........               .......",
"                                 ..........              .......",
"                                  ..........             .......",
".............................................            .......",
"..............................................           .......",
"...............................................          .......",
"................................................         .......",
"...............................................          .......",
"..............................................           .......",
".............................................            .......",
"                                  ..........             .......",
"                                 ..........              .......",
"                                ..........               .......",
"                               ..........                .......",
"                              ..........                 .......",
"                             ..........                  .......",
"                            ..........                   .......",
".......                    ..........                    .......",
".......                   ..........                     .......",
".......                   .........                      .......",
".......                    .......                       .......",
".......                     .....                        .......",
".......                      ...                         .......",
".......                       .                          .......",
".......                                                  .......",
".......                                                  .......",
".......                                                  .......",
".......                                                  .......",
".......                                                  .......",
".......                                                  .......",
".......                                                  .......",
"................................................................",
"................................................................",
" ...............................................................",
" .............................................................. ",
"  ............................................................  ",
"   ..........................................................   ",
"    ........................................................    "
};
