/* XPM */
static char *s24gL003jss_png[] = {
/* columns rows colors chars-per-pixel */
"65 65 116 2 ",
"   c #714A24",
".  c #775029",
"X  c #755333",
"o  c #7A5635",
"O  c #7E5936",
"+  c #77573B",
"@  c #785739",
"#  c #7C5B3B",
"$  c #7C5E43",
"%  c #7E6145",
"&  c #7D6249",
"*  c #825C36",
"=  c #845E3B",
"-  c #86613C",
";  c #8A633D",
":  c #815F40",
">  c #836242",
",  c #8C6642",
"<  c #8F6946",
"1  c #83654A",
"2  c #886748",
"3  c #86694D",
"4  c #8B6B4C",
"5  c #906A46",
"6  c #936D4A",
"7  c #96714D",
"8  c #98734F",
"9  c #866C53",
"0  c #8A6E53",
"q  c #866F59",
"w  c #8D7154",
"e  c #8C745B",
"r  c #937354",
"t  c #9A7552",
"y  c #9D7955",
"u  c #92765B",
"i  c #95795D",
"p  c #9D7C5B",
"a  c #A07B57",
"s  c #A17E5C",
"d  c #8D7660",
"f  c #8E7961",
"g  c #957C64",
"h  c #9B7E63",
"j  c #957F68",
"k  c #A07F60",
"l  c #A2815E",
"z  c #978166",
"x  c #9C8165",
"c  c #97826C",
"v  c #9C846A",
"b  c #9F886F",
"n  c #9E8770",
"m  c #A48463",
"M  c #A88764",
"N  c #A78866",
"B  c #A98966",
"V  c #A2866A",
"C  c #A3896D",
"Z  c #AD8D6B",
"A  c #B08F6D",
"S  c #AE906E",
"D  c #B1916E",
"F  c #A48C71",
"G  c #A98F72",
"H  c #AC9174",
"J  c #A6907A",
"K  c #AC947A",
"L  c #B49573",
"P  c #B89776",
"I  c #B79876",
"U  c #B99976",
"Y  c #B2977A",
"T  c #B59A7B",
"R  c #BC9D7B",
"E  c #BFA07E",
"W  c #C0A17F",
"Q  c #B49C82",
"!  c #B99F82",
"~  c #BDA184",
"^  c #BDA58B",
"/  c #C4A583",
"(  c #C8A784",
")  c #C7A886",
"_  c #C9A987",
"`  c #CAAB87",
"'  c #C1A689",
"]  c #C5A98B",
"[  c #C3AA8F",
"{  c #C8A988",
"}  c #CBAB89",
"|  c #C9AC8A",
" . c #CAAD8B",
".. c #CBAD8B",
"X. c #CCAD8B",
"o. c #CAAD8D",
"O. c #CCAD8C",
"+. c #CDB08D",
"@. c #D0B18F",
"#. c #C6AC91",
"$. c #C7AE91",
"%. c #CBAF90",
"&. c #C8AF95",
"*. c #CDB091",
"=. c #CFB292",
"-. c #C9B095",
";. c #CEB396",
":. c #CBB49B",
">. c #CEB498",
",. c #D0B393",
"<. c #D0B494",
"1. c #D1B79B",
"2. c #D4B799",
"3. c #D1B89B",
"4. c #D2BA9E",
"5. c #D7BEA3",
/* pixels */
"z g Q :.4.4.4.4.4.4.3.3.4.4.4.4.4.4.4.4.3.3.3.3.1.1.1.1.1.1.1.1.1.1.1.1.1.1.1.1.1.3.3.3.3.4.4.4.4.4.4.4.4.4.4.4.4.4.3.4.3.$.K z z ",
"z ^ 5.<.O.......X.X.................................} } } } } } } } } } } } } } ........................................X.=.,.T x ",
"Q 5..._ } } } _ } } } } } } } } } } } } } _ _ _ _ _ _ _ _ _ _ _ _ _ _ _ _ _ _ _ _ _ _ } } } } } _ _ _ _ } } ....} } } _ } } X.} F ",
"&.=._ ..} } ....X.O.X.} } } } } } } } } } _ _ _ } } } _ _ } } _ _ _ _ } } } } } } } } } } } } } } } _ _ } } } ........} } } ..} K ",
";...} } } ....../ R / } } } } } } } } } } } } } _ ) ) _ ) ) ) ) _ _ ) ) ) ) ) ) ) ) _ } } } } } _ } } } } } } } } ......} } ..} H ",
"=...} } ....X.~ v v h R X.} } } } _ ) ) ) ) ) ) ) / ) ) ) / / / _ / / / ) ) _ _ } _ ) _ _ _ _ } } } } } } } } } } } ......} ..} H ",
"=...} ......} / V 1 $ ~ +.) _ _ } } } } _ _ } _ _ _ _ / / / / / / / / / / / U H H T / ) ) ) ) _ _ _ } } } } } } _ } } ......X._ G ",
"=...} ....} } ..O.[ -.=._ ...._ / / R R T T T T U R E / / ( / / / / / / / K z v x h Y _ / ) ) ) _ _ _ _ ) } ........} } ......_ G ",
"=.......} } } } } X.X.} _ ~ Y G F C v v V v v V V C C F G Y R / / / / / / Y r = =   V O./ / / ) ) ) ) _ ..} / / / ) } X.} ...._ G ",
"=.......} } } } } } / T F v v x h p y y y y y y y s m m V V C G L W / / / / T v j J $./ / / / / / ) _ ) T F C C C F H ~ } } .._ G ",
"=.....} } } } } X.R F v V p t 6 5 < 5 5 5 5 5 5 6 6 6 7 t y l M V Z R W W W / ..%.O./ / / / / / / / / H v V h p y p m V R } ..} H ",
"=...} } } } } ..R v F m 8 5 < < < 5 5 5 5 5 5 5 6 6 6 6 7 7 8 t a m C U E R R R R R W / / / / / / _ R v M 8 5 , 5 6 t t m } X.} G ",
"=...} } } } ../ C G a 7 7 6 5 5 < < 5 5 5 5 5 5 5 5 5 6 6 7 7 t t y y Z R R R R E W W W W / / / / / / M 5 8 t 7 6 t t ; 0 =.} } H ",
"=...} _ } } X.T C l t y 7 6 5 5 5 < < < < < 5 5 5 5 5 5 5 6 6 8 t y t y R R R R R R R R E W W / / / / E i > - - * * o & ^ =.} } H ",
"=...} } } } } R m y y t 8 6 6 5 5 5 5 < < < < < < < 5 5 5 6 6 7 t t y 4 R R U U U R R R E E E W / / / ) } T V h g c K -.<._ .._ H ",
"=...} } } } } ) B 8 a y t 7 6 5 5 5 5 5 5 5 5 5 < < < 5 5 5 6 6 8 a < e ~ L U R R U U U U R E W W / / / / O.=.=.;.<.<.X.) } .._ G ",
"=...} } } } ) } / p 6 y y t 6 6 6 5 5 5 5 5 5 5 5 5 5 < < < 6 7 t , & Q U L L B x x x x v v C H R W / / / / / / / / / ) } } ..} G ",
"=...} } _ } ) / } } V 2 6 t t t 7 6 6 6 5 5 5 5 5 5 5 5 6 6 6 ; # e Q R D S g g x h p p k m m x C U / / / / / / / ) _ } } } .._ G ",
"=...} } } } ) / / ) ..! x 4 , < 6 7 7 7 7 7 7 6 6 6 5 , = o + e G ~ L Z D h v M t 6 5 , 5 7 t y y B / W / / / / / ) ) _ } } } _ G ",
"=...} } ..} _ ) / / / } ..^ K v u 0 2 > > > > > > $ 1 9 e F Y ! I Z Z Z Z m y 6 t t 7 6 6 t t t = i ) R / / / / / ) ) ) } } } _ G ",
"=...} } ~ H H K ~ / / W W / / } / ~ Q Y K K K K K K T T R I D B B B Z Z Z Z m 4 2 < < ; ; ; - # q ~ / R / / / / / / _ _ } } } _ H ",
"=.} ..R z v m h x E / / W R R U U U R R R U U I L L Z B M M B B B B B B B B L H V g e 0 0 e z K [ / R R E H C C C G T / ) } } _ H ",
"=.} } / m = O X 9 } / W W R R R U L L D D Z Z Z B B B B B B B M M M M B B B B Z L T R ! ! ~ / E U U R W Z z V m h m x Y } } } } G ",
"=.} _ } ..! Q Q $.} W W E R R U U I L L L D Z Z B B B B M M m m m M m M M B B B B B Z Z D D D L L U U R H r ; ; , , . C =.) } ) G ",
"=.} } ) } O.=.O./ / / W R R R U I L L L D Z Z Z Z B B M m m m m m m m m m m m M B Z Z D D L L P U U R R / Y g e e e J =.} ) } _ G ",
"=.} } } ) / / / / / / W R R U U L L L D Z Z M p u u u p m m m l l l l m m m M m m x p i h h h x V C S L R / ....$.=.,.} ) } } _ G ",
"=.} } ) _ ) / / / / / E R R U U L L L A Z M e g h h h i r l l l l l l l m p r w e u g h h x x x x x x v V C L W / / / / _ _ } _ G ",
"=.} } ) ) / / / / / / W R R U P L L D Z Z m u t 5 5 5 > 2 M s l p p l s 0 e g v m y y t 8 7 7 8 t t y p m m V G R / / ) ) _ } _ G ",
"=.} } ) ) _ ) / E R R R R R U L L L D Z Z Z M 0 1 & & 9 F N p p p p p 3 g C l t 5 , , , < 5 5 5 5 5 5 6 7 t a m C R / / ) _ } _ G ",
"=.} } } / Y F C v v v V C H I I L L D Z Z B Z H H H H H N p p p p l w g Z t 8 7 6 6 5 5 < 5 5 5 5 6 6 6 7 8 t y y Z ) / ) _ } _ G ",
"=.} } / F v V h p p p m m x C L L L D Z Z B M m l l s p p p p p p p r m y t y t 6 6 5 5 < < < < < 5 5 6 6 t t y t r } / _ _ } _ G ",
"=.} ..T v m t 6 5 , 5 7 t y t H L D S Z Z B M m m l l l p p p p p p p y t y y t 7 6 6 5 5 5 < < < < 5 6 6 t y a * c =./ ) ) } _ G ",
"=.} } / m = 6 7 7 6 6 6 6 = & R L D D Z B B M m m l l p p p p p p p p l r 4 7 t 8 7 6 6 6 6 6 6 6 5 6 6 7 7 < # j -.) / ) ) } _ G ",
"=.} _ } } G e 2 : O o $ 3 j ~ E L L Z Z Z B B m m l l p p p p p p p p s M x w 2 > , , < 5 5 5 5 < , = O o % d Q ;.) / / ) ) } _ G ",
"=.} } ) } +...^ ! Q Q ! ' ] R L L L D Z B M m m m l l l p p p p p p p p p M C C x i w 9 1 1 1 1 3 9 e z K ~ %.../ / / / ) ) } _ G ",
"=.} } } ) / / _ } } ) / R U L L L L m i i u u i m m l l p p p p p l l a a a l B Z H Y Y Y T T Q ! ~ / ' / / E E / / / / ) _ } _ G ",
"=.} } ) ) ) / / / W R R R U U L L Z u i p y p 4 r M l l l p p s s r 0 w w w r p l m M B Z A D L L L U U R R E / / / / ) _ _ } _ G ",
"=.} ) ) _ ) / / / / W E R R U U L L B 0 $ # $ 9 F B l l l l l p 4 e x x h p i u i M B B Z Z D L L L U R R R W / / / / / _ _ } _ G ",
"=.} } } _ ) / / / / W E R R U U L L L T Y K K Y Z m m m l l l w g C y t 6 6 7 y y m B Z Z D D L L U U R R E W / / / / ) _ _ } _ G ",
"=.} } } ) ) / / / / / E R R U U L L D D D A Z B m M m m m m l i p 6 7 7 6 6 6 6 O V D B Z D L L L U U R R E / / / / / / _ _ } _ G ",
"=.} } } ) ) / / / / / W R R U U U L L L D Z Z Z B M M m m m m m p 2 > , - * O + f Y Z Z A D L L L U U R R W L C G R / ) ) _ } _ G ",
"=.} } } ) ) / / / / / W W W R U L L Z Z B B B Z Z B B M M M m m B Z x g u g z K T Z Z Z D L L L U U R R E W V u 2 u } ) _ _ } _ G ",
"=.} } } } ) ) / / / / / U H C v x h h g g g g g h h m B B N M M m B Z L Y Y L D B Z Z D L L L I U U R R E W E C g Q O./ _ _ } } G ",
"=.} } } } ) ) / / / R C z v v h p p p s k m m m m x h i M B B B B B M M M B B B Z Z D D L L L I U R R R W W / ..;.+./ ) } } } _ G ",
"=.} } } } _ ) / / R v V V s t 6 5 , , < 5 6 7 t y s m m h B Z B B B Z Z Z Z Z Z Z D L L P U U R R R R E W / / / / / ) _ } } } _ H ",
"=...} } } _ ) / _ H C m 8 8 7 6 6 5 5 5 6 6 6 7 8 t t y y M D Z Z Z Z Z Z Z Z D L Z C m V V C H I R E W / / / / / ) ) _ } } } ) H ",
"=...} } } } _ ) ) T y 8 y y t 7 6 6 5 < < 5 6 6 7 t y y = C L Z A A Z D D D L D x g g h x v v v V H R / / / / / / ) ) ) } } } } G ",
"=...} } } } _ ) / _ L 4 5 t y t t 7 6 6 6 6 6 7 8 8 5 # g ! L D D D D L L L L h z V s t 7 t y s m m G W / / / / ) ) ) } } } ..) G ",
"=...} } ..} } ) ) / ..~ V w , , , < , , ; ; * O O % e K ' L L L L L L L L L C v B 8 7 6 < 5 7 8 t y y R / / / / ) ) _ _ } } ..} G ",
"=...} ) ! R / ) ) ) / } ..] ! H v h g g g g g n K ~ ' / L L L L L L L L L U Z s t y t 7 6 < 6 t y a - T } / / ) ) _ } } } } ..} G ",
"=.} ..T e 3 m ..) ) ) / / / } ........] ] ] } } / R U L U U U U U U U U U U U B 4 7 y t 8 6 6 t t * e o./ / ) ) ) _ } } } } .._ H ",
"=.} } ) T F ~ O.) ) ) ) / / / W W W W R R R R U U U R R U U U U U U U U U U R / H r 2 , > = O # $ c $.} / ) ) ) _ } } } } } ..} H ",
"=...} ..=.<.=._ _ _ ) ) / / / / / / / / / W W E E R R R R R R R R R R R R R R R / ' Q G F v F K [ ;._ / ) ) ) _ _ } } } } } .._ H ",
"=...} } _ ) _ } } } _ ) ) / / / / / / / / / W E W E E R R R R E W W E R R R R E R W / } ..=.%.O._ / / ) ) ) _ } } } } } } } ..} G ",
"=.....} } } } _ } _ _ _ _ ) ) / / / / / / / / / / W W W W W W R U T R E / W W W / / W W W W / / / / / / / ) _ _ } } } } } } ..} H ",
"=.......} } } ..X.X.} ) ) / ) _ _ _ / / / / / / / / / / / E H v v v V G R / / / / / / / / / / / ) ) ) _ } } } } } } } } } } .._ H ",
"=.......} } X./ T K H F F F G H Y R / / / / / / / / / / / R i r t 6 6 = C } / / / / / / / / / / ) } _ / / / ) } } } } } } ...._ G ",
"=...} ....} T b v v h p p h x m V V H / / / / / / / / / / / R h 0 9 9 c [ _ / / / / / / / ) ) ) ) ~ H F C C G ! } } } } ....X._ G ",
"=...} ..../ v V s y 8 6 5 6 7 t y s r L ../ ) / / / / / / / } =.=.%.;.;.} / / / / / / ) ) ) ) _ } H i p y y r w / X.} ........_ G ",
"=...} } ..} Y , ; 5 6 7 6 5 6 6 , * X Q +./ ) ) ) / ) ) ) ) / / / / / / / ) ) ) ) ) ) ) _ _ _ _ } / m $ @ @ $ v =...} ....} .._ G ",
"O...} } } ..+.~ V u 3 1 # @ + 1 e n $.<.) } _ _ _ ) _ ) ) ) ) ) ) ) _ ) _ ) ) _ ) ) _ } } } } } } ..=.o.' [ -.2.O.} ....} } ..) C ",
"/ X.} } } } } +.<.;.$.[ ^ ^ [ $.>.<.=._ _ } } } } _ ) } _ ) ) ) ) ) ) ) ) } ) _ ) } } } } } } } } } } X.+.@.X._ } ..} } } } X.~ g ",
"F / } X.....X.} _ ..O.@.@.,.@.O..._ _ } } } } } } } } } } } } } } } } } } } } } } } } } } } } ........} } } } ....X.X.....O.} v f ",
"z F Y ~ ) _ _ _ _ _ ) ) ) / / _ ) ) ) _ ) ) ) ) ) ) / ) ) ) ) ) ) ) ) ) ) ) / ) ) ) ) _ ) _ ) ) ) ) _ } } } _ _ _ _ _ _ ) R z e v ",
"z z x z z v v z z v v v v v v v z v v v v v v v z z v z z v v v v v v v v v v v v z v v v v v v z z v v v v v v z z z v g e f v z "
};
