/* XPM */
static char *s24oVqOWjry_png[] = {
/* columns rows colors chars-per-pixel */
"65 65 243 2 ",
"   c None",
".  c #000000",
"X  c #0B0201",
"o  c #0C0A02",
"O  c #030C01",
"+  c #120202",
"@  c #1A0501",
"#  c #100E03",
"$  c #1A1606",
"%  c gray12",
"&  c #130014",
"*  c #2C0302",
"=  c #250302",
"-  c #271C08",
";  c #260515",
":  c #2F0E12",
">  c #002A03",
",  c #2B2A11",
"<  c #000029",
"1  c #0F2B2B",
"2  c #2B3331",
"3  c #302B29",
"4  c #2A002C",
"5  c #4B091E",
"6  c #770E0F",
"7  c #7A3711",
"8  c #480429",
"9  c #5E0E27",
"0  c #580329",
"q  c #5D1028",
"w  c #4F1A21",
"e  c #640A2B",
"r  c #6D132F",
"t  c #67142D",
"y  c #640230",
"u  c #6F0A34",
"i  c #6E1330",
"p  c #6E1830",
"a  c #721431",
"s  c #7B1734",
"d  c #7A0B37",
"f  c #503320",
"g  c #014937",
"h  c #387128",
"j  c #2B5727",
"k  c #78480A",
"l  c #72662C",
"z  c #674C34",
"x  c #613F42",
"c  c #2C4140",
"v  c #0C6342",
"b  c #447445",
"n  c #6E6E6E",
"m  c #6E5045",
"M  c #940000",
"N  c #A80000",
"B  c #933316",
"V  c #8B143C",
"C  c #911D3E",
"Z  c #8F0439",
"A  c #A7002F",
"S  c #AD0B33",
"D  c #B32C24",
"F  c #B82B38",
"G  c #A6332C",
"H  c #B73E14",
"J  c #D70200",
"K  c #FF0100",
"L  c #FF0D00",
"P  c #EC0000",
"I  c #FF321B",
"U  c #DB0C34",
"Y  c #DB392D",
"T  c #DC3B33",
"R  c #C1352E",
"E  c #FF3A24",
"W  c #E73B37",
"Q  c #E83337",
"!  c #BC4C1A",
"~  c #BB511D",
"^  c #AB4F1C",
"/  c #BE5821",
"(  c #B95620",
")  c #A84B28",
"_  c #927934",
"`  c #BA7937",
"'  c #A5793D",
"]  c #964719",
"[  c #C1531B",
"{  c #C15A21",
"}  c #C85C22",
"|  c #D84036",
" . c #FE4436",
".. c #FF4639",
"X. c #FA463A",
"o. c #D0782F",
"O. c #FF783D",
"+. c #990747",
"@. c #921449",
"#. c #A71248",
"$. c #9C224B",
"%. c #B52948",
"&. c #D22D42",
"*. c #CE2F45",
"=. c #EC3C42",
"-. c #907647",
";. c #A5585E",
":. c #FF4D41",
">. c #FE7D7A",
",. c #D3434E",
"<. c #009700",
"1. c #008B00",
"2. c #0DA500",
"3. c #2AAA00",
"4. c #35A800",
"5. c #229F23",
"6. c #458732",
"7. c #51963E",
"8. c #4CAB23",
"9. c #54AD32",
"0. c #009143",
"q. c #258A44",
"w. c #4E9643",
"e. c #549A45",
"r. c #5BAE43",
"t. c #56A444",
"y. c #5DB243",
"u. c #55B446",
"i. c #4CB24A",
"p. c #61B349",
"a. c #62B747",
"s. c #68BC51",
"d. c #7B9E76",
"f. c #78BD73",
"g. c #7ABB64",
"h. c #9D8F00",
"j. c #92863F",
"k. c #8D813C",
"l. c #98A122",
"z. c #EDB700",
"x. c #ECAA03",
"c. c #CF9D3F",
"v. c #D7903B",
"b. c #EBB23A",
"n. c #F2B730",
"m. c #C89E19",
"M. c #B9CA3B",
"N. c #988E40",
"B. c #AC9E4C",
"V. c #A59849",
"C. c #BF964A",
"Z. c #AE8F4A",
"A. c #B7AA52",
"S. c #B6AA53",
"D. c #80B773",
"F. c #C79846",
"G. c #DC9B41",
"H. c #D59C45",
"J. c #C58D40",
"K. c #F09641",
"L. c #C6A748",
"P. c #DAAA48",
"I. c #CEB65A",
"U. c #EAAE48",
"Y. c #E6AB49",
"T. c #EAB44E",
"R. c #EEB94F",
"E. c #F3B84D",
"W. c #EEB950",
"Q. c #E7B753",
"!. c #F2BB50",
"~. c #DCBC66",
"^. c #EEBB63",
"/. c #CCC05E",
"(. c #D2C45F",
"). c #EFC45D",
"_. c #F7CF5F",
"`. c #F9D44B",
"'. c #F8E659",
"]. c #D2C461",
"[. c #DCCD65",
"{. c #DAC565",
"}. c #DFD16C",
"|. c #E5D469",
" X c #E9D76A",
".X c #F3D466",
"XX c #F9DB69",
"oX c #EECF68",
"OX c #F5E26E",
"+X c #FDEB6A",
"@X c #FEE56F",
"#X c #F6E573",
"$X c #F9E671",
"%X c #FBEA75",
"&X c #FCED79",
"*X c #F7E874",
"=X c #FFF176",
"-X c #FFF37A",
";X c #FFF97D",
":X c #87BB92",
">X c #B4B4B6",
",X c #A4A7B9",
"<X c #AD94A9",
"1X c #FF868A",
"2X c #D9A09F",
"3X c #E8BD8C",
"4X c #D5B9A9",
"5X c #FFABA8",
"6X c #FEB7B7",
"7X c #D38F9D",
"8X c #99C790",
"9X c #A5CD9D",
"0X c #B2D3AB",
"qX c #9BC6A9",
"wX c #E3C09D",
"eX c #E2E39C",
"rX c #D1D0BA",
"tX c #EED6B2",
"yX c #F1E6AD",
"uX c #B6B9CE",
"iX c #BCDBC2",
"pX c #B2C8C2",
"aX c #D7D8D9",
"sX c #D0D7D2",
"dX c #FECDCC",
"fX c #F9D5D7",
"gX c #CCE1CB",
"hX c #D6E6D4",
"jX c #C9E3CE",
"kX c #FEF7CB",
"lX c #E1EDDF",
"zX c #CAD3EB",
"xX c #D3D2E9",
"cX c #DADDF8",
"vX c #CDD4F3",
"bX c #E0D9F9",
"nX c #DEE3FC",
"mX c #FEE6E2",
"MX c #F8F6EB",
"NX c #E8EAFC",
"BX c #FFFFFF",
"VX c #FEF7FF",
"CX c #E9EBE8",
/* pixels */
"                                                                                                                                  ",
"                                                                                                                                  ",
"                                                                                                                                  ",
"                                                                                                                                  ",
"                                                                                                                                  ",
"                                                                                                                                  ",
"                                                                                                                                  ",
"                                                                                                                                  ",
"                                                                                                                                  ",
"                                                                                                                                  ",
"                                                                                                                                  ",
"                                                                                                                                  ",
"                                                                                                                                  ",
"                                                                                                                                  ",
"                                                                                                                                  ",
"                                              . . . . . . . . . . . . . . . . . . . .                                             ",
"                                            @ * * * % 2 2 % * * * + X X . X X . X X X .                                           ",
"                                          . D T T J 4XaXaX2XJ | Y F V s q 9 9 9 9 9 e 5 .                                         ",
"                                      . . D  .....L dXBXBX6XK :.....&.#.V i a a a a a r 5 .                                       ",
"                                    X = . Y .. ...K dXBXBX6XK X. ... .&.V t r r r r r i i 5 .                                     ",
"                                  . D T Y  .......E 1X5X5X>.I ..W %.&.*.V t r i r r r r a e . .                                   ",
"                                + D ..T F S A A A A N N N N A U Q %.@.$.C t i i r r r r a q . .                                   ",
"                              . * W T q 4 ' F.F.F.C.C.F.C.F.F.G.O.Q $.%.C t r p r r r r a q . .                                   ",
"                              . * W F 8 y H.c._ P.E.E.E.E.c._ L.K.U +.+.Z 0 0 0 0 y y y y 8 . .                                   ",
"                                @ B 6 : ; I.N.. A.XX.X.XXXV.. B.XX^.~.~.I.J.J.F.` G ) G ` Z.. o                                   ",
"                                  . . O . [.S.. /.=X%X%X-XA.. A.-X&X&X=XXXE.!.!.G.[ } [ o.` . +                                   ",
"                                      $ . [.V.. I.&X#X#X=XB.. S.&X#X#X%X.XU.T.R.G.! / / { B . o                                   ",
"                                      $ . ].|.S. X-X=X%X%X[.S.|.%X*X*X%X.XU.T.W.G.! { { { ( 7 .                                   ",
"                                      o V. X&X-X{.A.Z.[.%X%X=X&X*X%X$X&X.XU.T.W.G.! { { / } ^ . @                                 ",
"                                    . @ [.-X#X&XZ.. -.|.%X#X#X#X%X%X$X&X.XU.T.W.G.! { { { { ~ 7 +                                 ",
"                                    . o ].=X#X&X}.Z.oX;X*X*X%X%X%X%X%X%X.XU.T.W.G.~ { { { / } ^ @ .                               ",
"                                    . o ].=X*X.X_.XX_.).XX%X%X%X%X%X*X&X.XU.T.W.v.! { { { / } ^ @ .                               ",
"                                    . - [.-X#X.X).#XXX).OX*X%X#X%X*X&X#X).T.T.R.Y.o.H ~ } } ~ 7 +                                 ",
"                                    $ . _  X=X-X+X+X&X+X'.'.+X&X+X'.'.n.x.z.n.T.R.Y.v.v.B ] 7 .                                   ",
"                                  $ . j.B.|.].j.tXeXM.eXkXkXeXM.eXkXtX4XwXrXwXb.T.!.P.l . . . -                                   ",
"                                $ . k.OX=X&XI.] aXiX<.jXBXBXiX<.iXBXNXvXvXxX3Xb.T.!.H._ S.A.j.. ,                                 ",
"                              . X j.OX&X$X#X&X`.MX0X<.hXBXBX0X<.gXBXNXzXvXaX3Xb.T.T.!.@X=X=XOX_ . o                               ",
"                              . - [.=XOX#X#X#X+XyXgXf.8XMXBXlXf.8XMXNXzXbXzX4Xn.E.W.XX&X$XOX&XOXN.. o                             ",
"                              . - [.=XOX#X#X#X&Xz.mXjX<.gXBXBXgX<.rXVXsXpX:Xh.L.H._.%X#X#X$X#X=X[.. .                             ",
"                              . $ B.#X%XOX#X%X$X`.tX0X2.0XhXhX9X3.9XsX:X3.9.u.0.z Q.=X#X#X$X#X=X|.. .                             ",
"                                # . V.#X=X=X@XP.` m.l.i.8.4.4.8.y.8.4.9.p.y.a.e.< l |.=X#X#X&X$XB.. o                             ",
"                                  $ . B.(./.L.k > q.u.y.r.p.p.y.y.a.p.y.y.r.y.w.2 . l |.=X=X$XB.. .                               ",
"                                    $ . . . . . 7.s.r.y.y.t.w.e.7.6.7.y.y.r.y.w.2 3 . l (.].B.. -                                 ",
"                                      . . . O & 4.3.8.p.t.b c c % . h a.y.r.y.t.b g 1 ; . . . o                                   ",
"                                            2 . d.0Xf.5.q.g v 1 . . j 9.y.p.p.9.1.f ,.F w $ # .                                   ",
"                                            . n CXBXrXh.-.x m f . O . 6.9.4.2.g.qX7XE =.d . X .                                   ",
"                                          . n CXBXBX6XK *.+.#.d . o . j D.9X8XgXBXdXK X.F 0 . .                                   ",
"                                        % . aXBXBXBX6XK ,.$.%.s .     . >XBXBXBXBXmX>.E W u . X                                   ",
"                                        % . sXBXBXBX5XK J M N 6 .     . >XBXBXBXBXBXfXK T + . X                                   ",
"                                        % . aXBXBXBXdX1X2X<X7X;..     . >XBXBXBXBXBXfXP R X                                       ",
"                                          . uXNXcXnXnXnXnXNXNX,X.     . ,XNXcXnXnXNXuX. ; +                                       ",
"                                                                                                                                  ",
"                                                                                                                                  ",
"                                                                                                                                  ",
"                                                                                                                                  ",
"                                                                                                                                  ",
"                                                                                                                                  ",
"                                                                                                                                  ",
"                                                                                                                                  ",
"                                                                                                                                  ",
"                                                                                                                                  ",
"                                                                                                                                  ",
"                                                                                                                                  ",
"                                                                                                                                  ",
"                                                                                                                                  "
};
