/* XPM */
static char *s2605Yeg289_png[] = {
/* columns rows colors chars-per-pixel */
"64 64 38 1 ",
"  c None",
". c black",
"X c gray1",
"o c #6D122E",
"O c #6D122F",
"+ c #6D132F",
"@ c #6E132F",
"# c #6D142F",
"$ c #6E1330",
"% c #315940",
"& c #325A41",
"* c #FF3F35",
"= c #C05921",
"- c #C15A22",
"; c #FF4236",
": c #FF4336",
"> c #FF4337",
", c #FF4437",
"< c #A61C47",
"1 c #A91A44",
"2 c #A71D48",
"3 c #5BB042",
"4 c #5CB143",
"5 c #EBB44D",
"6 c #ECB44C",
"7 c #ECB44D",
"8 c #ECB54E",
"9 c #FAE771",
"0 c #F9E873",
"q c #F9E874",
"w c #FAE874",
"e c #FAE974",
"r c #FAE975",
"t c #D2D5EC",
"y c #D2D5ED",
"u c #D3D5ED",
"i c #D3D6ED",
"p c white",
/* pixels */
"                                                                ",
"                                                                ",
"                                                                ",
"                                                                ",
"                                                                ",
"                                                                ",
"                                                                ",
"                                                                ",
"                                                                ",
"                                                                ",
"                                                                ",
"                                                                ",
"                                                                ",
"                                                                ",
"                                                                ",
"                      .....................                     ",
"                     .......................                    ",
"                    ..>>>>ppp>>>>11#OOOOOOO..                   ",
"                  ...>>>>>ppp>>>>*11OOOOOOOO..                  ",
"                 ....>>>>>ppp>>>>>>1OOOOOOOOO..                 ",
"                ..>>>>>>>>>>>>>>222<OOOOOOOOO..                 ",
"               ..>>#$OOOOOOOOOO>><<2OOOOOOOOO..                 ",
"               ..>OOO55555555555><<<OO$OOOOOO..                 ",
"               ..>OOO5..55555..5>22<OO$OOOOOO..                 ",
"                .....q..qqqq0..q0qq05575====5..                 ",
"                 ....q..qqqqq..qqqqq5757=====..                 ",
"                   ..q..qqqqq..qqqqq5555=====..                 ",
"                   ..qqqqqqqqqqqqqqq5557======..                ",
"                  ..qqqqO$Oqqqqqq0qq5757======..                ",
"                  ..qqqqOOqqqqqqqqqq5555=======..               ",
"                  ..qqqqq500qqqqqqqq5555=======..               ",
"                  ..qqq55q57qqqqqqqq7555=======..               ",
"                  ..qqqqqqqqqqqqqqq755555=====..                ",
"                 ....qqqqqqqqqqqqq575575575....                 ",
"                ...999..p44ppp44ppuuuu5555......                ",
"               ...999995p33ppp44ppuuu755777999...               ",
"               ..9999999p44ppp44ppuuuu775799999...              ",
"               ..99999995p44ppp44puuu45579999999..              ",
"               ..99999995p44ppp44pu4444%79999999..              ",
"               ...999995554334344444344%.9999999..              ",
"                ...9995..33433333444433%..99999...              ",
"                 .......433444443444334%...999...               ",
"                  ......33444%%%..34334%%.......                ",
"                      ..3443%%%...333333%%<....                 ",
"                      ..pp43%%%....34334%>>2...                 ",
"                     ..ppp>><2<....4333pp>><...                 ",
"                    ..pppp>><<<.. ..ppppp>>><..                 ",
"                    ..pppp,>222.. ..pppppp>>...                 ",
"                    ..pppp>><22.. ..pppppp>>..                  ",
"                    ..uuuuuuuuu.. ..uuuuuu...                   ",
"                                                                ",
"                                                                ",
"                                                                ",
"                                                                ",
"                                                                ",
"                                                                ",
"                                                                ",
"                                                                ",
"                                                                ",
"                                                                ",
"                                                                ",
"                                                                ",
"                                                                ",
"                                                                "
};
