/* XPM */
static char *s24fRHfjgVn_png[] = {
/* columns rows colors chars-per-pixel */
"65 65 85 1 ",
"  c #1D1E1E",
". c #1E2020",
"X c #2D2D2D",
"o c #302F2F",
"O c #353434",
"+ c #383737",
"@ c #3C3C3C",
"# c #444444",
"$ c #474848",
"% c #4B4B4B",
"& c #545454",
"* c #585757",
"= c #575858",
"- c #5C5C5C",
"; c #605F5F",
": c #636363",
"> c #686767",
", c #676868",
"< c #6C6C6C",
"1 c #706F6F",
"2 c #737373",
"3 c #787777",
"4 c #797876",
"5 c #777878",
"6 c #7C7C7C",
"7 c #807F7E",
"8 c #82807F",
"9 c #838383",
"0 c #888786",
"q c #888887",
"w c #878888",
"e c #8C8C8C",
"r c #908F8E",
"t c #93958D",
"y c #949494",
"u c #989797",
"i c #9D9E96",
"p c #979898",
"a c #9C9C9C",
"s c #9FA199",
"d c #A4A59D",
"f c #9FA0A0",
"g c #A0A0A0",
"h c gray63",
"j c gray64",
"k c #A4A4A4",
"l c gray65",
"z c #A7A7A7",
"x c #A8A8A7",
"c c #ADAEA7",
"v c #A7A8A8",
"b c #AAA9AB",
"n c #AAABAB",
"m c gray67",
"M c #ACACAC",
"N c gray68",
"B c #AFAFAF",
"V c #B1B1AB",
"C c #B2B2AE",
"Z c #AFAFB1",
"A c #AFB0B0",
"S c #B1B1B3",
"D c #B4B3B2",
"F c #B4B4B4",
"G c #B7B7B7",
"H c #B7B8B3",
"J c #B8B8B6",
"K c #B7B8B8",
"L c #BABAB9",
"P c #BBBBBB",
"I c #BCBCBB",
"U c #BEBEBD",
"Y c #C0BFBF",
"T c #C3C3C3",
"R c #C4C3C3",
"E c gray77",
"W c #C8C7C7",
"Q c #C7C8C8",
"! c #CBCBCB",
"~ c #CECECE",
"^ c LightGray",
"/ c #D5D5D5",
"( c #D7D8D8",
") c gray85",
"_ c gray86",
/* pixels */
"eqdHLGGGGGGGGGGGLLLGGGGGGGGGGGGGGGGGGGGGGGGGGGGGGGGGGGGGGGGGJViqe",
"qcUSbbbbbbbbbNNNbhhbNNNbbbbbbbbbbbbbbbbbNbbbbbbbbbbbbbbbbbbbbZSse",
"dIbxbbbbbbbNNlpyehhuphbbbblllllllllblbbbllbNbbbbbbbbbbbbbbbbbbbbt",
"CZxbbbbbbblueyhL~/TLNauphlbbllllllllllbuyyyuabbbbbbbbbbbbbbbbbbly",
"DbbbbbbbbbubT~~~~!LLTTLNauualllllllllbua!LDGfabbbbbbbbbbbbbbbbbby",
"SbbNbbbbbbaS!^~TRESSGGLTTLNhphhhhhlhlhuaqebh<lNlbbbbbbbNbbNbbbbby",
"SbNapbbbbbhupS!~EUbbNSSDLTThylhhhhhhhhla2#&@,SlbbbbbbbNhypabNbbbe",
"SNhabpbbbblaapaNTEblbbNGSh6&plahaahhhhhlNp<XuNhlxbbbbNpqLNapplbbe",
"SNaau<hNbbbadapeuayalbly2,:2baaaaaaaaaaahbbyllhlllxbbua~^NSGbalbe",
"SbNu@2Sbbbbhaaap9&%-<6>&:2:0bpaaaaaaaaaaaalNhhlhlllbauTTShlNSppNe",
"SbNl0GCxbbbhaaau,-&&%%&:,<;phpppaapppppahhy0euslhllllb6:<<52&-SNe",
"SbbbSNxbbbblaha5::-*-&-:<><lpppupppppaapq9yGTayplllllbNe,<:#@bGly",
"Sbbbxbbbbbblaa5,<,>::-&-,-0huuuuppuppe99aU^)ENSpyallllbSa,-XyLlbe",
"Sbbbbbbbbbllle>:----::-->&uayuuuuuy05qN!~~!~UbSGxuuhllllNb,2Lbbbe",
"Cbbbbbbxblllllbhpe92,-%#+:hyyyyyyy0pE))^RTE~GlNNSSayallllNNSNbbbe",
"Cbbbbbbxllllhhhhllllhpy0<qaeyyyyyrepbGT!~~E!balbbNGNuuhlllbbbbbbe",
"Cbbbbbxllllhhaappppppppahpyyreeeeeyq260eabGUhuahlbNSSluplblbbbbbe",
"Sbbbbbblllhhaaaapppuuyyeeeeeeeeeeeqee90062220uupalbbNSSauhbbbbbbe",
"Sbbbbblllhhhhhaappuuyyyyeeeqeqeqeqqqeq7wq092>5yuuphlbbNGbphlbbbbe",
"Sbbbbllllllauuyeqyuyyyeeeqqqq02260qq0e06qq962<5yuuuahlbNGbpbxbbbe",
"Sbbbbllllaqqyyuaaeuyyeeeqqw002hA079000q09q0973220yuuphbhy<eNlbbbe",
"SbbbbllluwlEE!^^aepreeqqqq0w5qTlhq50900q09qeq95226euue92<-aNlbbbe",
"SbbbxllauT)/TLLe=pueeqqq000060:+%&e09900q0yyyq622126,-:<2,lxlxbbe",
"SbbxlllhaulN9:-%<aeeeqq000999909<9e6999900yuye05222>&-,2,2Nllxbxe",
"Cbbxllhhhye:+X@=qpqeqq0099996690q067799909quyyq6222:-:,2>9Nhllbbe",
"Cbbbllhhha5&,9uaaeeqq0q00099996656666669999yyye0522--:<2:ybhllbbe",
"Sbblllhhaauavhayereqqq5<<<<<<<2225556666999euuyq622--><2:alhllble",
"Sbxlllhhaahhuyyyyeeqe26Sbllpyq962,2555669999yyye95<&->11<lllllble",
"Sbxllhhhaapppuuyeeee<0!!UTW!!!!EERp255666999euyyq6>-;,2,5bhpyhxle",
"Cbllllllaaapuuyyeee,u^!UGGGLLLUT!b26556669990uyuq2>-:,2>9bpubable",
"Cbbblay0yappuuyeye>l(!TELSGGGGLTa<,6555669909epe52<:-,2-ybuha5Nle",
"Cbly0ehLapapuuyyq<G)!ETTUSSSSGLy<3<6555666609q95652>-,<-plhp&2Nle",
"NbubW~/L2aapuyuq2U)EEETYTLGGGS9>22<6555666900q02265<::>>hhhhuSble",
"SbuGSpy<>aapuue5E)EETTTTTlall2-<22<65556669900rr6152:--2lahhNllle",
"Sbhq#X @%papup2G/Q!TTTTTu,,2<&><22<65556679900qeue2,>:%6bahhhlble",
"Sblllape0haup9p/ERTTYEUe>222-&:<22<65566679900qqeuu5*-%ylahhllble",
"SbxbbNNbbhpay9~!TUIUEL9,22<=%%&:22<6556669900qqeeeuae:@ahahhllble",
"Sbbllhhaaapa5L^TTULUS5,22,&#%%&&:,:9656699900qqeeyyyap9hahhhllble",
"Cbxlllhhhaa0l)~!EUKS6,22>%$%%%&--#2q56699900qqqeyyuuuahaahhlllble",
"CbxxllhhaapeLGbhy92>,22:%%%%%%-&%9y66699990wqqeeyyuupppaahhlllble",
"Cbbbllhhhaaa0<532<,>:,-#%%%%%-%&qe5696999900qqey9qupppaahhhlllbbe",
"Sbbblllhhhaaaq50962<>-%%%%%&-#-yq599999900wqqey9phqppaashhhlllbbe",
"Sbbblllhhhapaaq29652<:%%%%&-#<uq699999900qqqeeyqe:2apaashhlllbbbe",
"Sbbbblllhhaappaq29655,%%%&&#5p090990000qqqqeeeyuuppaaaahhhllbbbbe",
"Sbblhlllhhhaaapaq26961&%&&%qp09000000q0250eyyyyypaapaaahhhllbbbbe",
"Sbbphphllhhaaaapae2692&&#&yp00q00000e91lp969qyuuuupaaahllbbbbbbxe",
"SNapu<ubhhhhaaapuae262&O-au0qqqqqqqe92L!SKSaeeyuppaaahhpuuyyplbbe",
"Sbly9hNlllhhhaaapuae2>o<huqeeeqqqqeq5T/ENSTEUyupppaahaqualbJbhNxe",
"SbbNGSbllllhhaaaapuar&6lueyreeeeeey0yELGllhy<6lpaaahh9S~T!/~0hSle",
"Sbbbblbxlllhhhaaaapppphuyuyyyyeereyeye522,-&&hapaahh6G/TT!Tq>lNle",
"Cbbbbbbbbbxlllhhhaapppuuuuuyyyyyyyyyu0252-&#qbpaaha6L/!!Ny22,hSle",
"Cbbbbbbbuyyeeqqqq0eppppppuuuuuuuyyuuuau2,,%-laaaha6L)~!u%&-%-bNle",
"SbbbbbNplGSGLUTTT!Suaapppppuuuuuuuuuuuaa5&+ylpahaqU)^!0@-&%9SSbbe",
"SbbbbblyU!TTE!!!^!eelaaapppppppppppppppal92baahhphEUU6#&@:hLNbbbe",
"SbbbbNahEUULGLLT!p5qhaaaaaapppppppppppapallhahhhlh9q5&#+qGGlbbbbe",
"SbbbbNuLELUUUUT!N709hhaaaaaaaaahaaaaaaaaaahhhhhllbp9,+>bLNlbbbbbe",
"SbbbbluEETULSlpq29q6ulhhhaaaaaaqepaaaaaahhhhhhllllNq%eLSlbbbbbbbe",
"SbbbNpN~USp6-%@#&,69elhhhhhhha0lSehahhhhhhhlllllllblbLblbbbbbbbbe",
"Sbbbbabaq52>%%%&-;&%<blhhhhhlyh~e:ulhhhhhllauallbbbbNlbbbbbbbbbbe",
"SbbbbNh22962--&%@#:qlblllllhlau:.0blhlllllhulaelbbbbbbbbbbbbbbbbe",
"NbbbbbSN0292-%O#5aSGNlllllllllq<lGlllllllllp9,eNbbbbbbbbbbbbbbblq",
"lbbbbbbNSu<&#>yNLSbllblllllllllSNhlllllllllNpeGbbbbbbbbbbbbbbbNa6",
"yhbNbbbbbSa9lLGNbbbbbbbbbbbbbbbblbbbbbbbbbbbNGbbbbbbbbbbbbbbbNl97",
"eruhlbbbblNSSlllbbblbbblllllllllllllllllbbbbllbxllxbbbbblbvbla94e",
"eeq889999996690999999999999999999999999999999999999999999999626ee"
};
